<svg width="55" height="55" viewBox="0 0 55 55" fill="none" xmlns="http://www.w3.org/2000/svg">
<g clip-path="url(#clip0_102_96)">
<path d="M5.30199 19.2749C5.41487 19.275 5.52664 19.2527 5.63092 19.2096C5.73521 19.1664 5.82997 19.1031 5.90978 19.0233L7.30842 17.6245L11.3845 21.7006L11.8046 24.3405C11.8366 24.5423 11.9396 24.7261 12.0949 24.8589C12.2502 24.9916 12.4478 25.0647 12.6521 25.065C12.6977 25.065 12.7432 25.0614 12.7882 25.0542C13.0133 25.0184 13.2149 24.8946 13.3488 24.7101C13.4826 24.5257 13.5377 24.2956 13.5018 24.0705L13.0382 21.1553C13.0097 20.9762 12.9254 20.8108 12.7972 20.6826L8.52379 16.4091L15.764 9.16891L19.9017 13.3065C20.0518 13.4564 20.2519 13.5455 20.4637 13.5567L23.869 13.7393C23.8847 13.7401 23.9002 13.7406 23.9157 13.7406C24.1398 13.7406 24.355 13.6532 24.5155 13.4969C24.676 13.3406 24.7691 13.1278 24.775 12.9038C24.7809 12.6799 24.6991 12.4625 24.547 12.2979C24.395 12.1334 24.1847 12.0347 23.961 12.023L20.8844 11.8581L16.9794 7.95354L19.0231 5.90984C19.1842 5.74868 19.2748 5.53011 19.2748 5.30221C19.2748 5.0743 19.1842 4.85573 19.0231 4.69457L14.5802 0.251712C14.5004 0.171909 14.4057 0.108606 14.3014 0.0654177C14.1972 0.022229 14.0854 0 13.9725 0C13.8597 0 13.7479 0.022229 13.6437 0.0654177C13.5394 0.108606 13.4447 0.171909 13.3649 0.251712C13.2851 0.331514 13.2218 0.426253 13.1786 0.53052C13.1354 0.634787 13.1132 0.74654 13.1132 0.859397C13.1132 0.972255 13.1354 1.08401 13.1786 1.18827C13.2218 1.29254 13.2851 1.38728 13.3649 1.46708L17.1998 5.30204L5.30199 17.2003L1.46703 13.3653C1.30529 13.2071 1.08768 13.1191 0.861433 13.1203C0.635181 13.1215 0.418541 13.2119 0.258526 13.3719C0.0985119 13.5319 0.00803409 13.7485 0.0067282 13.9747C0.00542231 14.201 0.0933937 14.4186 0.251551 14.5804L4.6942 19.0233C4.77401 19.1031 4.86877 19.1664 4.97306 19.2096C5.07734 19.2527 5.18912 19.275 5.30199 19.2749Z" fill="#233B59"/>
<path d="M24.6287 15.9655C24.7127 16.0409 24.8108 16.099 24.9173 16.1365C25.0237 16.174 25.1366 16.1902 25.2493 16.1841C25.362 16.1779 25.4724 16.1497 25.5742 16.1009C25.676 16.0521 25.7672 15.9837 25.8426 15.8996L27.6719 13.86L32.8375 13.0385C33.0165 13.01 33.1819 12.9256 33.3101 12.7974L37.5834 8.52406L44.8236 15.7643L40.686 19.902C40.5314 20.0568 40.4415 20.2646 40.4348 20.4833L40.3213 24.1793C40.3144 24.4071 40.3982 24.6283 40.5543 24.7944C40.7104 24.9604 40.9261 25.0576 41.154 25.0646H41.1808C41.4041 25.0644 41.6186 24.9774 41.7788 24.8219C41.9391 24.6664 42.0325 24.4547 42.0393 24.2315L42.1423 20.876L46.039 16.9792L48.0826 19.0229C48.1624 19.1028 48.2571 19.1661 48.3614 19.2093C48.4657 19.2525 48.5774 19.2747 48.6903 19.2747C48.8032 19.2747 48.9149 19.2525 49.0192 19.2093C49.1235 19.1661 49.2182 19.1028 49.298 19.0229L53.7408 14.5801C53.9003 14.4186 53.9895 14.2005 53.9888 13.9735C53.9881 13.7465 53.8976 13.529 53.7371 13.3684C53.5765 13.2079 53.359 13.1174 53.132 13.1168C52.905 13.1161 52.6869 13.2053 52.5254 13.3648L48.6905 17.1998L36.792 5.30226L40.6269 1.4673C40.7835 1.30526 40.8702 1.0882 40.8683 0.862878C40.8664 0.637552 40.7761 0.421986 40.6168 0.262608C40.4575 0.103231 40.242 0.0127942 40.0167 0.0107767C39.7913 0.00875913 39.5742 0.0953222 39.4121 0.251822L34.9692 4.69447C34.8081 4.85563 34.7176 5.0742 34.7176 5.3021C34.7176 5.53 34.8081 5.74857 34.9692 5.90973L36.368 7.30847L32.2918 11.3847L27.1006 12.2103C26.9057 12.2413 26.7275 12.3384 26.5957 12.4852L24.5626 14.7518C24.4873 14.8359 24.4292 14.9339 24.3917 15.0404C24.3543 15.1468 24.3382 15.2596 24.3443 15.3723C24.3504 15.4851 24.3787 15.5954 24.4275 15.6972C24.4763 15.799 24.5447 15.8901 24.6287 15.9655Z" fill="#233B59"/>
<path d="M23.6228 41.7293L22.1626 41.9616C21.9835 41.9901 21.8181 42.0744 21.6899 42.2027L17.4166 46.476L10.1764 39.2358L14.3139 35.0982C14.4685 34.9435 14.5584 34.7356 14.5652 34.517L14.7793 27.5403C14.7882 27.2381 14.8622 26.9413 14.9962 26.6702C15.046 26.569 15.0755 26.4589 15.0828 26.3463C15.0901 26.2337 15.0752 26.1207 15.0388 26.0139C15.0025 25.907 14.9455 25.8084 14.871 25.7236C14.7966 25.6387 14.7061 25.5694 14.6049 25.5196C14.5036 25.4697 14.3936 25.4403 14.2809 25.433C14.1683 25.4256 14.0554 25.4406 13.9485 25.4769C13.8417 25.5132 13.743 25.5703 13.6582 25.6447C13.5734 25.7192 13.5041 25.8096 13.4542 25.9109C13.2114 26.4021 13.0775 26.9399 13.0614 27.4876L12.8573 34.124L8.96099 38.0203L6.91793 35.9767C6.83813 35.8969 6.74338 35.8336 6.63911 35.7904C6.53483 35.7472 6.42306 35.7249 6.31019 35.7249C6.19732 35.7249 6.08556 35.7472 5.98128 35.7904C5.877 35.8336 5.78226 35.8969 5.70245 35.9767L1.25916 40.4196C1.17857 40.4992 1.11452 40.594 1.07069 40.6985C1.02686 40.8029 1.00413 40.915 1.00379 41.0283C1.00345 41.1416 1.02552 41.2539 1.06872 41.3586C1.11192 41.4633 1.1754 41.5585 1.25552 41.6386C1.33563 41.7187 1.43079 41.7822 1.53553 41.8254C1.64027 41.8686 1.75251 41.8906 1.86581 41.8903C1.9791 41.8899 2.0912 41.8672 2.19567 41.8233C2.30014 41.7795 2.39491 41.7154 2.47453 41.6348L6.30949 37.7999L18.208 49.6978L14.373 53.5328C14.2932 53.6126 14.2299 53.7073 14.1867 53.8116C14.1435 53.9159 14.1213 54.0276 14.1213 54.1405C14.1213 54.2533 14.1435 54.3651 14.1867 54.4693C14.2299 54.5736 14.2932 54.6684 14.373 54.7482C14.4528 54.828 14.5476 54.8913 14.6518 54.9344C14.7561 54.9776 14.8678 54.9999 14.9807 54.9999C15.0936 54.9999 15.2053 54.9776 15.3096 54.9344C15.4138 54.8913 15.5086 54.828 15.5884 54.7482L20.0307 50.3056C20.1918 50.1445 20.2824 49.9259 20.2824 49.698C20.2824 49.4701 20.1918 49.2515 20.0307 49.0903L18.632 47.6916L22.7082 43.6154L23.8928 43.427C24.1156 43.3887 24.3144 43.2641 24.446 43.0803C24.5776 42.8965 24.6315 42.6682 24.5959 42.445C24.5604 42.2217 24.4383 42.0214 24.2562 41.8876C24.074 41.7537 23.8465 41.697 23.6228 41.7297V41.7293Z" fill="#233B59"/>
<path d="M54.7483 40.4194L50.3056 35.9766C50.2258 35.8968 50.1311 35.8334 50.0268 35.7902C49.9225 35.747 49.8108 35.7248 49.6979 35.7248C49.585 35.7248 49.4733 35.747 49.369 35.7902C49.2647 35.8334 49.17 35.8968 49.0902 35.9766L47.6915 37.3753L43.6154 33.2992L42.7896 28.108C42.7612 27.929 42.6769 27.7636 42.5487 27.6354L31.8132 16.8973C30.6807 15.7649 28.8006 15.7323 27.7074 16.8256C27.4129 17.1216 27.1911 17.482 27.0596 17.8784L26.7481 17.5668C26.4832 17.3019 26.1687 17.0918 25.8226 16.9484C25.4765 16.8051 25.1056 16.7313 24.731 16.7313C24.3563 16.7313 23.9854 16.8051 23.6393 16.9484C23.2932 17.0918 22.9787 17.3019 22.7138 17.5668C22.4423 17.8374 22.2294 18.1609 22.0882 18.5172C21.6728 18.179 21.1706 17.9647 20.6391 17.8987C20.1076 17.8328 19.5682 17.918 19.0829 18.1445C18.5975 18.3709 18.1858 18.7296 17.8948 19.1793C17.6039 19.629 17.4456 20.1516 17.438 20.6871C16.7013 20.691 15.996 20.9863 15.4763 21.5085C14.9423 22.0439 14.6423 22.7693 14.6423 23.5255C14.6423 24.2818 14.9423 25.0072 15.4763 25.5426L21.6157 31.6819C21.2427 31.7156 20.8752 31.7943 20.5211 31.9163L18.8668 32.4909C18.6061 32.5813 18.3727 32.7365 18.1885 32.9419C18.0042 33.1473 17.8752 33.3961 17.8134 33.6651C17.7517 33.934 17.7593 34.2142 17.8355 34.4794C17.9118 34.7446 18.0541 34.986 18.2492 35.1811L24.8937 41.8257C25.5833 42.5172 26.5114 42.9183 27.4875 42.9469L34.1237 43.151L38.0205 47.0477L35.9768 49.0914C35.8157 49.2526 35.7252 49.4711 35.7252 49.699C35.7252 49.9269 35.8157 50.1455 35.9768 50.3067L40.4197 54.7495C40.5809 54.9107 40.7995 55.0012 41.0274 55.0012C41.2553 55.0012 41.4739 54.9107 41.6351 54.7495C41.7962 54.5884 41.8868 54.3698 41.8868 54.1418C41.8868 53.9139 41.7962 53.6953 41.6351 53.5342L37.8001 49.6992L49.6982 37.801L53.5331 41.636C53.6127 41.7166 53.7075 41.7807 53.812 41.8245C53.9165 41.8683 54.0286 41.8911 54.1418 41.8914C54.2551 41.8918 54.3674 41.8697 54.4721 41.8265C54.5769 41.7833 54.672 41.7199 54.7521 41.6398C54.8323 41.5596 54.8957 41.4645 54.9389 41.3598C54.9821 41.255 55.0042 41.1428 55.0039 41.0295C55.0035 40.9162 54.9808 40.8041 54.937 40.6996C54.8931 40.5951 54.8291 40.5004 54.7485 40.4207L54.7483 40.4194ZM35.0981 41.6934C34.9434 41.5386 34.7355 41.4488 34.5168 41.4421L27.54 41.2283C27.0015 41.2125 26.4894 40.9912 26.109 40.6097L19.5661 34.0667L21.0853 33.5394C21.6168 33.3569 22.1889 33.3267 22.7367 33.4524C23.2845 33.578 23.7862 33.8544 24.1851 34.2503L26.4596 36.5248C26.5394 36.6046 26.6341 36.6679 26.7384 36.7111C26.8427 36.7543 26.9544 36.7765 27.0673 36.7765C27.1802 36.7765 27.2919 36.7543 27.3962 36.7111C27.5005 36.6679 27.5952 36.6046 27.675 36.5248C27.7548 36.445 27.8181 36.3503 27.8613 36.246C27.9045 36.1417 27.9268 36.03 27.9268 35.9171C27.9268 35.8042 27.9045 35.6925 27.8614 35.5882C27.8182 35.4839 27.7549 35.3892 27.6751 35.3094L16.6923 24.3263C16.4799 24.1135 16.3607 23.8252 16.3607 23.5246C16.3607 23.224 16.4799 22.9357 16.6923 22.7229C16.7969 22.6196 16.921 22.5382 17.0575 22.4834C17.1939 22.4286 17.3399 22.4016 17.4869 22.4038C17.6338 22.4061 17.7789 22.4375 17.9136 22.4965C18.0483 22.5554 18.1699 22.6405 18.2714 22.7469L24.7086 29.1841C24.7884 29.2639 24.8832 29.3272 24.9874 29.3704C25.0917 29.4136 25.2034 29.4358 25.3163 29.4358C25.4292 29.4358 25.5409 29.4136 25.6452 29.3704C25.7494 29.3272 25.8442 29.2639 25.924 29.1841C26.0038 29.1043 26.0671 29.0095 26.1103 28.9053C26.1535 28.801 26.1757 28.6893 26.1757 28.5764C26.1757 28.4635 26.1535 28.3518 26.1103 28.2475C26.0671 28.1433 26.0038 28.0485 25.924 27.9687L19.4867 21.5316C19.2746 21.3189 19.1556 21.0307 19.1557 20.7304C19.1559 20.43 19.2752 20.142 19.4875 19.9295C19.6998 19.717 19.9877 19.5975 20.2881 19.5971C20.5885 19.5967 20.8767 19.7155 21.0896 19.9274L22.7386 21.5798L27.5032 26.3894C27.6643 26.5506 27.8829 26.6411 28.1109 26.6412C28.3388 26.6412 28.5574 26.5507 28.7186 26.3895C28.8797 26.2284 28.9703 26.0098 28.9703 25.7818C28.9704 25.5539 28.8798 25.3353 28.7187 25.1741L23.9296 20.3852C23.824 20.2799 23.7402 20.1549 23.6829 20.0173C23.6257 19.8797 23.5961 19.7321 23.596 19.583C23.5959 19.4339 23.6251 19.2863 23.6821 19.1486C23.7391 19.0108 23.8226 18.8856 23.928 18.7802C24.0334 18.6748 24.1586 18.5912 24.2963 18.5342C24.4341 18.4772 24.5817 18.448 24.7308 18.4481C24.8799 18.4482 25.0274 18.4777 25.1651 18.5349C25.3027 18.5922 25.4277 18.676 25.533 18.7816L30.3219 23.5705C30.4831 23.7317 30.7017 23.8223 30.9296 23.8223C31.1575 23.8223 31.3761 23.7318 31.5373 23.5706C31.6985 23.4095 31.7891 23.1909 31.7891 22.963C31.7891 22.7351 31.6986 22.5165 31.5374 22.3553L28.9359 19.7536C28.4706 19.2884 28.4954 18.4677 28.9228 18.0406C29.3501 17.6135 30.1325 17.647 30.5978 18.1121L41.1359 28.6533L41.9616 33.8446C41.9901 34.0236 42.0744 34.189 42.2026 34.3172L46.476 38.5907L39.2358 45.8309L35.0981 41.6934Z" fill="#233B59"/>
</g>
<defs>
<clipPath id="clip0_102_96">
<rect width="55" height="55" fill="white"/>
</clipPath>
</defs>
</svg>
