<svg width="59" height="48" viewBox="0 0 59 48" fill="none" xmlns="http://www.w3.org/2000/svg">
<path d="M23.6162 40.2678C20.5608 38.1048 18.1691 35.1326 16.7099 31.6851C16.6064 31.4327 16.6066 31.1497 16.7105 30.8974C16.8144 30.6452 17.0136 30.4441 17.2649 30.3378C17.5161 30.2315 17.7992 30.2285 18.0525 30.3296C18.3059 30.4307 18.5093 30.6276 18.6184 30.8776C19.9276 33.9703 22.0733 36.6365 24.8144 38.5769C25.0371 38.7363 25.1876 38.9775 25.233 39.2477C25.2783 39.5178 25.2149 39.7949 25.0565 40.0184C24.8982 40.2419 24.6578 40.3936 24.3879 40.4403C24.118 40.4871 23.8405 40.425 23.6162 40.2678Z" fill="#C7DBE6"/>
<path d="M15.6939 28.5993C15.5614 28.0538 15.4521 27.4927 15.3671 26.9311C15.328 26.6605 15.3975 26.3854 15.5605 26.1658C15.7234 25.9463 15.9666 25.8 16.2369 25.759C16.5073 25.718 16.7828 25.7856 17.0036 25.9469C17.2243 26.1083 17.3723 26.3504 17.4152 26.6205C17.4921 27.1234 17.5903 27.6248 17.7077 28.1116C17.7711 28.3782 17.7264 28.6591 17.5832 28.8927C17.44 29.1264 17.21 29.2938 16.9437 29.3583C16.6773 29.4228 16.3963 29.3792 16.162 29.2369C15.9278 29.0947 15.7595 28.8654 15.6939 28.5993Z" fill="#C7DBE6"/>
<path d="M28.0473 1.8649C27.788 1.9511 27.5732 2.13628 27.4498 2.38012C27.3264 2.62395 27.3043 2.90667 27.3884 3.1667C27.4725 3.42672 27.656 3.64298 27.8988 3.76837C28.1416 3.89375 28.4241 3.91811 28.6848 3.83612C29.9665 3.42693 31.2846 3.14212 32.6208 2.98566C31.9803 4.84092 32.8535 6.14881 34.3496 7.24884C34.5643 7.39349 34.7661 7.55652 34.9527 7.73607C34.98 8.83301 32.8529 10.235 31.5546 10.4592C27.7773 11.1102 24.7739 11.1274 23.8559 12.8291C22.5145 15.3172 25.0284 17.3362 25.8939 18.3724C28.3357 21.3002 29.7316 21.4703 32.1567 21.1031C34.3556 20.7722 34.39 22.0652 36.9846 22.0877C38.1485 22.1009 38.8297 23.0957 39.7107 23.8758C40.7212 24.742 41.8314 25.4848 43.0177 26.0883C44.9452 27.1676 44.0758 28.7198 43.3111 30.3824C41.2302 34.8911 38.2805 35.3001 35.3048 39.4927C34.7096 40.372 34.3204 41.3743 34.1664 42.4249C33.5439 41.7478 33.1214 40.9113 32.946 40.0084C32.361 36.8835 37.3107 33.9692 31.7257 30.302C30.8572 29.862 30.158 29.148 29.7363 28.2705C29.02 26.4928 30.3667 26.0261 29.4742 23.5504C28.1488 19.8676 22.9548 18.8948 20.2475 15.5999C21.9658 14.2443 23.3311 12.4938 24.2273 10.4971C25.3492 7.80727 25.5568 4.82342 24.8183 2.00408C24.7577 1.77042 24.6369 1.55671 24.468 1.38422C24.2991 1.21173 24.088 1.08648 23.8557 1.02092C23.6234 0.955371 23.3779 0.951807 23.1438 1.01058C22.9097 1.06936 22.695 1.18843 22.5212 1.35594C18.8998 4.81975 16.6506 3.19028 12.9626 7.73713C11.5995 9.41592 10.4712 12.5235 12.829 17.7906L12.8428 17.822C12.6204 18.6452 12.444 19.4802 12.3144 20.323C12.2307 20.2283 12.1484 20.1369 12.0632 20.0467C11.4875 16.1706 9.62102 13.1842 5.69595 13.6523C4.58488 13.8529 3.44052 13.7562 2.37887 13.372C2.14868 13.2827 1.89862 13.2575 1.65525 13.299C1.41188 13.3405 1.18429 13.4471 0.996653 13.6075C0.809019 13.768 0.668352 13.9763 0.589595 14.2102C0.510837 14.4442 0.496932 14.6952 0.549355 14.9364C1.03285 17.1792 2.38581 19.1387 4.31169 20.3856C6.21172 21.5805 8.48936 22.0232 10.6986 21.6269C11.3597 22.2957 11.8226 23.1345 12.036 24.0503C12.0474 27.1165 12.6718 30.1495 13.8724 32.971C13.9808 33.2228 14.1845 33.4214 14.4391 33.5233C14.6936 33.6252 14.9782 33.6221 15.2304 33.5145C15.4827 33.407 15.682 33.204 15.7848 32.9498C15.8876 32.6956 15.8854 32.411 15.7788 32.1584C13.939 27.8249 13.6014 23.0006 14.8199 18.4531C16.1233 18.0531 17.3728 17.4947 18.5403 16.7904C21.5742 20.5869 26.5087 21.4317 27.5253 24.2528C28.1486 25.9847 26.8108 26.5535 27.8137 29.0447C28.3871 30.3177 29.3617 31.3678 30.5884 32.0344C34.7371 34.7566 30.0653 35.892 30.9102 40.3909C31.1874 41.9675 32.0358 43.3867 33.2932 44.3774C34.486 45.1691 35.781 44.8821 36.2106 42.7735C36.3156 42.0305 36.5833 41.3199 36.9949 40.6925C39.7555 36.8017 42.8815 36.2575 45.1935 31.2512C46.5984 28.3674 46.927 25.9016 44.0298 24.2801C42.9745 23.7468 41.986 23.0903 41.0851 22.3245C39.7913 21.1808 39.0985 20.0335 37.004 20.0159C34.7712 19.9918 34.9479 18.5886 31.8472 19.054C30.1669 19.3091 29.4488 19.4028 27.4858 17.0454C26.7247 16.1323 25.1136 14.8622 25.6785 13.8153C26.067 13.2286 29.491 12.9184 31.9069 12.5013C33.7264 12.1876 37.088 10.2569 37.0252 7.68506C36.9721 7.24333 36.8127 6.82107 36.5607 6.45441C36.3087 6.08776 35.9715 5.78764 35.5782 5.57975C33.997 4.41598 34.4905 4.11984 34.8873 2.82681C35.3348 2.8104 35.7829 2.82413 36.2285 2.86792C37.2794 4.66906 39.6935 6.5909 41.93 6.16364C42.7885 5.95128 43.568 5.49726 44.1763 4.8554C45.1223 5.29616 46.0342 5.80652 46.9047 6.38227C46.7468 9.16732 48.7214 12.457 52.4225 11.7923C52.6169 12.0683 52.8004 12.351 52.9818 12.6363C52.177 13.39 51.6063 14.3594 51.3379 15.4288C50.9249 17.0257 51.4408 17.8965 51.8034 19.8089C52.5555 23.7781 51.4908 25.9704 53.297 26.7411C53.6356 26.8623 53.9992 26.8964 54.3544 26.8403C54.7096 26.7843 55.0451 26.6399 55.3299 26.4203C55.5791 26.2792 55.886 26.0796 56.1469 26.1723C55.6991 30.3117 54.0357 34.2259 51.3665 37.4213C48.6972 40.6166 45.1417 42.9501 41.148 44.1276C37.1544 45.305 32.9016 45.2736 28.9258 44.0374C24.95 42.8012 21.4293 40.4155 18.8074 37.181C18.6334 36.9703 18.3831 36.8369 18.1111 36.8098C17.8391 36.7827 17.5675 36.8642 17.3553 37.0365C17.1431 37.2088 17.0075 37.458 16.9782 37.7297C16.9488 38.0014 17.028 38.2738 17.1985 38.4874C19.8557 41.7635 23.3572 44.2516 27.325 45.6834C31.2928 47.1151 35.5763 47.436 39.7131 46.6114C43.85 45.7869 47.6831 43.8482 50.7988 41.0046C53.9144 38.1611 56.1944 34.5206 57.3925 30.4761C58.5906 26.4316 58.6614 22.1367 57.5972 18.0549C56.5331 13.9731 54.3744 10.2595 51.3541 7.31477C48.3339 4.37005 44.5667 2.30609 40.4593 1.34565C36.3519 0.3852 32.0602 0.564743 28.0473 1.8649ZM14.5715 9.04248C17.5984 5.31288 19.4817 6.53217 23.0373 3.6555C23.3777 5.68084 23.1341 7.76126 22.335 9.65317C20.9414 12.6064 18.4562 14.9037 15.4027 16.0614C16.1451 13.8043 17.5475 11.8219 19.4288 10.3706C19.643 10.2007 19.7814 9.953 19.8139 9.68148C19.8463 9.40996 19.7701 9.13663 19.6019 8.92103C19.4337 8.70544 19.1871 8.56505 18.9159 8.53046C18.6446 8.49587 18.3707 8.56988 18.1537 8.73637C16.2437 10.2125 14.7505 12.16 13.8208 14.3878C13.2616 12.1541 13.5041 10.3584 14.5715 9.04248ZM2.95562 15.6837C3.94193 15.8511 4.94861 15.8601 5.93776 15.7105C6.6523 15.58 7.38989 15.7166 8.01024 16.0945C8.63059 16.4723 9.0904 17.065 9.30222 17.7598C8.66854 17.3148 7.96992 16.9704 7.23108 16.7387C6.96885 16.6614 6.68671 16.6908 6.44607 16.8205C6.20544 16.9503 6.0258 17.1698 5.94627 17.4314C5.86674 17.6929 5.89376 17.9753 6.02144 18.217C6.14912 18.4588 6.36713 18.6403 6.628 18.722C7.27734 18.9177 7.88455 19.2326 8.41857 19.6506C7.35549 19.558 6.33019 19.2114 5.42891 18.6401C4.32149 17.9308 3.45822 16.899 2.95562 15.6837ZM39.2437 3.21549C40.1677 3.40002 41.0782 3.64696 41.9688 3.95464C41.0935 4.45233 40.0228 3.85328 39.2437 3.21549ZM49.3706 8.34349C49.8358 8.76792 50.2811 9.21193 50.7065 9.6755C50.4062 9.55387 50.1333 9.37335 49.9039 9.14458C49.6744 8.91582 49.4931 8.64343 49.3706 8.34349ZM54.2329 24.66C54.2504 22.9061 54.1187 21.1539 53.8392 19.4223C53.5196 17.7438 53.1113 16.8478 53.3434 15.9494C53.4793 15.4267 53.714 14.9348 54.0346 14.5002C55.5348 17.4699 56.2997 20.7566 56.2647 24.0836C55.5417 24.0401 54.8253 24.2433 54.2329 24.66Z" fill="#C7DBE6"/>
<path d="M17.2686 35.2999C17.2686 35.5048 17.2078 35.7052 17.094 35.8756C16.9801 36.046 16.8183 36.1788 16.6289 36.2572C16.4396 36.3356 16.2312 36.3562 16.0302 36.3162C15.8292 36.2762 15.6446 36.1775 15.4997 36.0326C15.3547 35.8877 15.2561 35.703 15.2161 35.502C15.1761 35.301 15.1966 35.0927 15.275 34.9033C15.3535 34.714 15.4863 34.5522 15.6567 34.4383C15.8271 34.3244 16.0274 34.2637 16.2324 34.2637C16.5072 34.2637 16.7708 34.3728 16.9651 34.5672C17.1594 34.7615 17.2686 35.0251 17.2686 35.2999Z" fill="#C7DBE6"/>
</svg>
