<svg width="44" height="44" viewBox="0 0 44 44" fill="none" xmlns="http://www.w3.org/2000/svg">
<g clip-path="url(#clip0_19_124)">
<path d="M25.8672 35.7246V38.3027C25.8672 40.4424 24.14 42.1699 22 42.1699C19.86 42.1699 18.1328 40.4424 18.1328 38.3027V35.7246C18.1328 35.0025 18.6998 34.4355 19.4219 34.4355H24.5781C25.3002 34.4355 25.8672 35.0025 25.8672 35.7246Z" fill="#4A696F"/>
<path d="M25.8672 35.7246V38.3027C25.8672 40.4424 24.14 42.1699 22 42.1699V34.4355H24.5781C25.3002 34.4355 25.8672 35.0025 25.8672 35.7246Z" fill="#384949"/>
<path d="M22 3.49805C13.9048 3.49805 7.82031 10.0206 7.82031 17.6777C7.82031 22.2667 10.0117 26.5723 13.8531 29.2793C14.9102 30.0269 15.5547 31.3418 15.5547 32.8111V33.1465C15.5547 35.2862 17.2818 37.0137 19.4219 37.0137H24.5781C26.7182 37.0137 28.4453 35.2862 28.4453 33.1465V32.7339C28.4453 31.3418 29.1929 30.001 30.482 29.0215C34.0913 26.3145 36.1797 22.1895 36.1797 17.6777C36.1797 9.89166 29.915 3.5239 22 3.49805Z" fill="#FFE470"/>
<path d="M36.1797 17.6777C36.1797 22.1895 34.0913 26.3145 30.482 29.0215C29.1929 30.001 28.4453 31.3418 28.4453 32.7339V33.1465C28.4453 35.2862 26.7182 37.0137 24.5781 37.0137H22V3.49805C29.915 3.5239 36.1797 9.89166 36.1797 17.6777Z" fill="#FDBF00"/>
<path d="M42.7109 18.9668H40.0469C39.3345 18.9668 38.7578 18.3901 38.7578 17.6777C38.7578 16.9651 39.3345 16.3887 40.0469 16.3887H42.7109C43.4233 16.3887 44 16.9651 44 17.6777C44 18.3901 43.4233 18.9668 42.7109 18.9668Z" fill="#F4D7AF"/>
<path d="M3.95312 18.9668H1.28906C0.576721 18.9668 0 18.3901 0 17.6777C0 16.9651 0.576721 16.3887 1.28906 16.3887H3.95312C4.66547 16.3887 5.24219 16.9651 5.24219 17.6777C5.24219 18.3901 4.66547 18.9668 3.95312 18.9668Z" fill="#FAECD8"/>
<path d="M33.8496 5.82797C33.3461 5.32443 33.3461 4.5087 33.8496 4.00516L35.6725 2.18234C36.176 1.6788 36.9917 1.6788 37.4953 2.18234C37.9988 2.68588 37.9988 3.50162 37.4953 4.00516L35.6725 5.82797C35.1689 6.33151 34.3532 6.33151 33.8496 5.82797Z" fill="#F4D7AF"/>
<path d="M6.50473 33.1727C6.00119 32.6692 6.00119 31.8534 6.50473 31.3499L8.32755 29.5271C8.83109 29.0235 9.64682 29.0235 10.1504 29.5271C10.6539 30.0303 10.6539 30.8463 10.1504 31.3499L8.32755 33.1727C7.82401 33.6762 7.00827 33.6762 6.50473 33.1727Z" fill="#FAECD8"/>
<path d="M8.32755 5.82797L6.50473 4.00516C6.00119 3.50162 6.00119 2.68588 6.50473 2.18234C7.00827 1.6788 7.82401 1.6788 8.32755 2.18234L10.1504 4.00516C10.6539 4.5087 10.6539 5.32443 10.1504 5.82797C9.64682 6.33151 8.83109 6.33151 8.32755 5.82797Z" fill="#FAECD8"/>
<path d="M35.6725 33.1727L33.8496 31.3499C33.3461 30.8463 33.3461 30.0303 33.8496 29.5271C34.3532 29.0235 35.1689 29.0235 35.6725 29.5271L37.4953 31.3499C37.9988 31.8534 37.9988 32.6692 37.4953 33.1727C36.9917 33.6762 36.176 33.6762 35.6725 33.1727Z" fill="#F4D7AF"/>
<path d="M29.1674 19.1729L22.3609 14.6612L24.4492 10.5104C24.7329 9.94339 24.5523 9.27301 24.0367 8.88629C23.521 8.52542 22.8251 8.57678 22.3867 9.04104L14.6523 16.7754C14.3687 17.0332 14.2398 17.42 14.2656 17.8067C14.3173 18.1934 14.5234 18.5284 14.8326 18.7604L21.6391 23.2721L19.5508 27.4229C19.2671 27.9903 19.4477 28.6606 19.9634 29.0474C20.479 29.4082 21.1749 29.3565 21.6133 28.8926L29.3477 21.1582C29.6313 20.9004 29.7602 20.5137 29.7344 20.127C29.6827 19.7403 29.4766 19.4049 29.1674 19.1729Z" fill="#FDBF00"/>
<path d="M29.7344 20.127C29.7602 20.5137 29.6313 20.9004 29.3477 21.1582L22 28.5059V9.42776L22.3867 9.04104C22.8251 8.57678 23.521 8.52542 24.0367 8.88629C24.5523 9.27301 24.7329 9.94339 24.4492 10.5104L22.3609 14.6612L29.1674 19.1729C29.4766 19.4049 29.6827 19.7403 29.7344 20.127Z" fill="#FF9F00"/>
</g>
<defs>
<clipPath id="clip0_19_124">
<rect width="44" height="44" fill="white"/>
</clipPath>
</defs>
</svg>
