<svg width="181" height="17" viewBox="0 0 181 17" fill="none" xmlns="http://www.w3.org/2000/svg">
<path d="M35.192 2.81815V9.90615C35.192 11.0582 34.456 11.8262 33.176 11.8262C31.896 11.8262 31.16 11.0582 31.16 9.90615V2.81815H28.2V9.97015C28.2 12.8662 30.008 14.4502 33.16 14.4502C36.344 14.4502 38.152 12.8662 38.152 9.97015V2.81815H35.192Z" fill="#F3FBFF"/>
<path d="M47.0714 2.81815H42.5754L39.1514 14.2422H42.0474L42.8634 11.2822H46.7034L47.5354 14.2422H50.4954L47.0714 2.81815ZM44.4314 5.63415H45.1354L46.0474 8.94615H43.5034L44.4314 5.63415Z" fill="#F3FBFF"/>
<path d="M63.8151 8.13015C64.4551 7.76215 64.9351 6.96215 64.9351 5.93815C64.9351 4.22615 63.7031 2.81815 61.0951 2.81815H55.4951V14.2422H61.2711C64.0231 14.2422 65.2391 12.8022 65.2391 10.8822C65.2391 9.76215 64.5031 8.91415 63.8151 8.57815V8.13015ZM58.4711 5.21815H60.6631C61.3031 5.21815 61.8791 5.45815 61.8791 6.21015C61.8791 6.96215 61.3351 7.18615 60.6951 7.18615H58.4711V5.21815ZM58.4711 11.7942V9.58615H60.8391C61.5911 9.58615 62.1831 9.87415 62.1831 10.7222C62.1831 11.5382 61.4791 11.7942 60.7911 11.7942H58.4711Z" fill="#F3FBFF"/>
<path d="M71.9636 7.71415V10.0662H74.1716C74.1236 11.1062 73.3556 11.8742 72.0116 11.8742C70.2996 11.8742 69.3716 10.5622 69.3716 8.53015C69.3716 6.53015 70.2996 5.23415 71.9636 5.23415C72.9236 5.23415 73.5636 5.58615 73.7716 6.27415H76.8436C76.4276 4.11415 74.7156 2.61015 71.9796 2.61015C68.3316 2.61015 66.3316 5.02615 66.3316 8.53015C66.3316 12.0822 68.3316 14.4502 71.9796 14.4502C75.6436 14.4502 77.1156 11.8582 77.1156 9.17015V7.71415H71.9636Z" fill="#F3FBFF"/>
<path d="M78.6914 2.81815V14.2422H81.6674V10.2422H84.0354L85.4594 14.2422H88.4354L86.7874 9.65015C87.8754 9.02615 88.4514 7.97015 88.4514 6.51415C88.4514 4.19415 86.9154 2.81815 84.2754 2.81815H78.6914ZM81.6674 7.76215V5.41015H83.8754C84.9794 5.41015 85.4114 5.81015 85.4114 6.57815C85.4114 7.33015 84.9794 7.76215 83.8754 7.76215H81.6674Z" fill="#F3FBFF"/>
<path d="M95.2243 2.61015C91.5283 2.61015 89.5123 5.13815 89.5123 8.53015C89.5123 11.9222 91.5283 14.4502 95.2243 14.4502C98.9203 14.4502 100.936 11.9222 100.936 8.53015C100.936 5.13815 98.9203 2.61015 95.2243 2.61015ZM95.2243 11.8262C93.4483 11.8262 92.5523 10.4502 92.5523 8.53015C92.5523 6.59415 93.4483 5.23415 95.2243 5.23415C97.0003 5.23415 97.8963 6.61015 97.8963 8.53015C97.8963 10.4502 97.0003 11.8262 95.2243 11.8262Z" fill="#F3FBFF"/>
<path d="M112.947 2.81815L112.131 10.6582H111.683L110.659 6.01815H107.091L106.067 10.6582H105.619L104.803 2.81815H101.987L103.299 14.2422H107.507L108.643 8.73815H109.091L110.227 14.2422H114.419L115.731 2.81815H112.947Z" fill="#F3FBFF"/>
<path d="M126.099 2.81815H116.291V5.44215H119.699V14.2422H122.675V5.44215H126.099V2.81815Z" fill="#F3FBFF"/>
<path d="M134.3 2.81815V7.04215H130.06V2.81815H127.084V14.2422H130.06V9.71415H134.3V14.2422H137.276V2.81815H134.3Z" fill="#F3FBFF"/>
<path d="M151.377 11.7782H147.201V11.3302C148.865 10.2582 151.105 8.80215 151.105 6.54615C151.105 4.16215 149.457 2.81815 147.073 2.81815C144.401 2.81815 142.865 4.17815 142.753 6.59415H145.601C145.665 5.68215 146.225 5.28215 146.977 5.28215C147.729 5.28215 148.241 5.73015 148.241 6.57815C148.241 7.55415 147.345 8.21015 146.385 8.86615L142.769 11.3302V14.2422H151.377V11.7782Z" fill="#F3FBFF"/>
<path d="M156.77 2.81815C154.21 2.81815 152.226 4.53015 152.226 8.62615C152.226 12.7222 154.21 14.4502 156.77 14.4502C159.33 14.4502 161.314 12.7222 161.314 8.62615C161.314 4.53015 159.33 2.81815 156.77 2.81815ZM156.77 11.9382C155.186 11.9382 155.09 9.82615 155.09 8.62615C155.09 7.41015 155.186 5.33015 156.77 5.33015C158.354 5.33015 158.45 7.41015 158.45 8.62615C158.45 9.82615 158.354 11.9382 156.77 11.9382Z" fill="#F3FBFF"/>
<path d="M170.949 11.7782H166.773V11.3302C168.437 10.2582 170.677 8.80215 170.677 6.54615C170.677 4.16215 169.029 2.81815 166.645 2.81815C163.973 2.81815 162.437 4.17815 162.325 6.59415H165.173C165.237 5.68215 165.797 5.28215 166.549 5.28215C167.301 5.28215 167.813 5.73015 167.813 6.57815C167.813 7.55415 166.917 8.21015 165.957 8.86615L162.341 11.3302V14.2422H170.949V11.7782Z" fill="#F3FBFF"/>
<path d="M172.181 3.04215V5.41015H176.693V5.85815L174.901 6.99415V9.13815C175.205 9.05815 175.493 9.01015 175.957 9.01015C177.029 9.01015 177.573 9.65015 177.573 10.5462C177.573 11.3622 176.997 12.0022 175.973 12.0022C175.077 12.0022 174.485 11.5222 174.357 10.6742H171.493C171.541 12.8182 173.269 14.4502 175.957 14.4502C178.597 14.4502 180.437 12.9142 180.437 10.5462C180.437 8.65815 179.285 7.66615 177.989 7.44215V6.99415L179.781 5.85815V3.04215H172.181Z" fill="#F3FBFF"/>
<circle cx="8.5" cy="8.5" r="8.5" fill="#FBD128"/>
<circle cx="8.49998" cy="8.49999" r="2.50001" fill="#2884CB"/>
</svg>
