<svg width="37" height="37" viewBox="0 0 37 37" fill="none" xmlns="http://www.w3.org/2000/svg">
<g clip-path="url(#clip0_19_185)">
<path d="M4.18905 33.8952C3.91162 33.8952 3.6342 33.7894 3.4226 33.5778C2.99927 33.1544 2.99927 32.4681 3.4226 32.0448L6.91057 28.5568C7.33383 28.1334 8.02021 28.1334 8.44354 28.5568C8.86688 28.9801 8.86688 29.6664 8.44354 30.0897L4.95557 33.5778C4.74391 33.7894 4.46648 33.8952 4.18905 33.8952Z" fill="#DDE9F7"/>
<path d="M1.08407 30.7898C0.806643 30.7898 0.529215 30.684 0.317621 30.4723C-0.105711 30.049 -0.105711 29.3627 0.317621 28.9393L3.80567 25.4513C4.22893 25.028 4.9153 25.028 5.33864 25.4513C5.76197 25.8746 5.76197 26.5609 5.33864 26.9843L1.85059 30.4723C1.63893 30.684 1.3615 30.7898 1.08407 30.7898Z" fill="#DDE9F7"/>
<path d="M7.29391 36.9998C7.01648 36.9998 6.73905 36.894 6.52746 36.6823C6.10413 36.2589 6.10413 35.5726 6.52746 35.1493L10.0155 31.6612C10.4388 31.2379 11.1251 31.2379 11.5485 31.6612C11.9718 32.0846 11.9718 32.7709 11.5485 33.1942L8.06043 36.6823C7.84877 36.894 7.57134 36.9998 7.29391 36.9998Z" fill="#BDD5EF"/>
<path d="M20.6051 36.9996C20.33 36.9996 20.0548 36.8947 19.845 36.6848L19.2075 36.0473C17.0971 33.9368 16.1079 31.0271 16.4934 28.0641C16.5388 27.716 16.7513 27.4118 17.0627 27.2495L26.1253 22.527C26.6014 22.279 27.1874 22.4201 27.4985 22.8576C29.3504 25.4638 29.0515 28.9986 26.7876 31.2625L21.3654 36.6847C21.1554 36.8947 20.8802 36.9996 20.6051 36.9996Z" fill="#FF9E00"/>
<path d="M7.67722 20.5271C5.16144 20.5271 2.76331 19.542 0.952402 17.7311L0.31502 17.0938C-0.104844 16.6739 -0.104844 15.9932 0.31502 15.5734L5.73725 10.1512C6.85672 9.03166 8.34236 8.35691 9.92042 8.25104C11.4828 8.14626 13.0302 8.6037 14.2775 9.53918C14.7028 9.85809 14.8311 10.44 14.5795 10.9082L9.75392 19.8868C9.59017 20.1915 9.2899 20.3987 8.947 20.4438C8.52194 20.4996 8.09788 20.5271 7.67722 20.5271Z" fill="#FFBB33"/>
<path d="M29.3964 21.9871C31.6251 19.4225 33.3502 16.5149 34.5337 13.3389L30.5964 6.36074L23.8628 2.66797C20.5337 3.80117 17.4818 5.52224 14.7847 7.79413C11.8677 10.2512 9.5151 13.2258 7.79214 16.6355L7.78174 16.6561L13.5347 23.9143L20.1322 29.0067L20.836 28.6511C24.1122 26.9955 26.9923 24.7534 29.3964 21.9871Z" fill="#F5F5FB"/>
<path d="M34.5337 13.3394L30.5963 6.36133L13.3173 23.6403L13.5348 23.9147L20.1323 29.0071L20.8361 28.6515C24.1122 26.9961 26.9922 24.754 29.3964 21.9877C31.6252 19.4231 33.3502 16.5155 34.5337 13.3394Z" fill="#DDE9F7"/>
<path d="M21.5909 19.65C20.4935 19.65 19.396 19.2323 18.5606 18.3968C16.8896 16.7259 16.8896 14.0071 18.5606 12.3362C20.2314 10.6653 22.9503 10.6653 24.6211 12.3362C26.292 14.0071 26.292 16.7259 24.6211 18.3968C23.7857 19.2323 22.6883 19.65 21.5909 19.65Z" fill="#92D3F1"/>
<path d="M18.5605 18.3966C19.3959 19.232 20.4934 19.6497 21.5908 19.6497C22.6882 19.6497 23.7856 19.232 24.6211 18.3965C26.292 16.7256 26.292 14.0069 24.6212 12.3359L18.5605 18.3966Z" fill="#7198F8"/>
<path d="M34.5649 13.2633C35.8231 10.2063 36.5998 6.97279 36.8674 3.67791L36.9933 2.12687C37.0928 0.901896 36.0574 -0.113364 34.8345 0.0102103L33.4675 0.148382C30.1543 0.483261 26.9137 1.33347 23.8627 2.66821L34.5336 13.3392L34.5649 13.2633Z" fill="#EC6990"/>
<path d="M7.62246 16.9715C7.5713 17.0728 7.53647 17.1816 7.51927 17.2938L6.63069 23.0987C6.57887 23.4369 6.69125 23.7795 6.93319 24.0215L12.7671 29.8553C12.9702 30.0585 13.2442 30.1702 13.5271 30.1702C13.5812 30.1702 13.6356 30.1662 13.6899 30.1579L19.4947 29.2693C19.6069 29.2521 19.7156 29.2173 19.8169 29.1662L20.1322 29.0068L7.78181 16.6562L7.62246 16.9715Z" fill="#3B5A7A"/>
<path d="M36.9933 2.12708C37.0434 1.51065 36.8059 0.947488 36.4019 0.555664L29.0759 7.88159L34.5337 13.3394L34.5649 13.2635C35.8231 10.2065 36.5998 6.973 36.8674 3.67812L36.9933 2.12708Z" fill="#BF28AC"/>
<path d="M9.93457 27.0229L12.7672 29.8555C12.9703 30.0587 13.2443 30.1704 13.5273 30.1704C13.5813 30.1704 13.6357 30.1664 13.69 30.158L19.4948 29.2694C19.607 29.2523 19.7157 29.2174 19.817 29.1663L20.1323 29.0069L14.0414 22.916L9.93457 27.0229Z" fill="#253C56"/>
<path d="M4.95953 33.561L8.44751 30.0729C8.87084 29.6496 8.87084 28.9634 8.44758 28.54L3.42664 33.561C3.6383 33.7726 3.91573 33.8784 4.19308 33.8784C4.47044 33.8784 4.74794 33.7726 4.95953 33.561Z" fill="#BDD5EF"/>
</g>
<defs>
<clipPath id="clip0_19_185">
<rect width="37" height="37" fill="white"/>
</clipPath>
</defs>
</svg>
