<svg width="46" height="46" viewBox="0 0 46 46" fill="none" xmlns="http://www.w3.org/2000/svg">
<g clip-path="url(#clip0_19_232)">
<path d="M38.1222 39.9823C42.3645 35.9698 45.0118 30.2885 45.0118 23.9884C45.0118 11.8316 35.1568 1.97656 23 1.97656C10.8433 1.97656 0.98822 11.8316 0.98822 23.9884C0.98822 36.1451 10.8433 46.0002 23 46.0002C23.9526 46.0002 24.8912 45.9395 25.8119 45.8222L38.1222 39.9823Z" fill="#816AE2"/>
<path d="M35.6533 32.8435C35.4601 32.1336 35.392 31.3955 35.452 30.6623L35.8115 27.2766C35.987 25.1522 35.6632 23.0238 34.7228 21.1109C32.2929 16.1684 32.8503 15.8097 32.7749 10.9043C32.7749 9.9023 31.9625 9.08984 30.9604 9.08984C29.9583 9.08984 29.1459 9.90221 29.1459 10.9043C29.1459 30.8525 29.183 29.3887 29.06 29.9736V32.5857C29.06 34.7865 27.2695 36.5771 25.0687 36.5771C23.607 36.5771 18.5663 36.5771 15.1363 36.5771C16.6622 38.6992 18.7497 40.3608 21.1723 41.3669C21.1873 41.3731 21.2023 41.3794 21.2173 41.3858C23.089 42.1763 25.1788 43.7538 25.5281 45.7111L25.5619 45.8509C30.4908 45.2794 34.9228 43.0806 38.3071 39.8046L35.6533 32.8435Z" fill="#F9BA8F"/>
<path d="M8.39708 9.15323L7.84446 8.64121C6.99247 7.85184 5.64957 7.90306 4.86021 8.75495C4.07084 9.60694 4.12205 10.9498 4.97395 11.7392L8.39708 14.911V9.15323Z" fill="#F9BA8F"/>
<path d="M6.09708 10.1517C5.57446 9.66749 5.35462 8.97515 5.44383 8.31543C5.23054 8.42459 5.0319 8.5696 4.86021 8.75477C4.07084 9.60675 4.12205 10.9496 4.97395 11.739L8.39708 14.9108V12.2829L6.09708 10.1517Z" fill="#FCAD6D"/>
<path d="M35.8186 33.2773C35.0691 38.4457 30.6209 42.4162 25.2449 42.4162C24.3167 42.4162 23.4163 42.2977 22.5577 42.0753C23.9811 42.9456 25.2616 44.2176 25.5281 45.7114L25.5618 45.8512C30.4908 45.2797 34.9228 43.0809 38.3071 39.8049L35.8186 33.2773Z" fill="#FD995B"/>
<path d="M26.0201 36.663H11.4443C9.72067 36.663 8.31848 35.2607 8.31848 33.5371V3.12593C8.31848 1.40228 9.72067 0 11.4443 0H26.0201C27.7438 0 29.146 1.40228 29.146 3.12593V33.5371C29.146 35.2607 27.7437 36.663 26.0201 36.663Z" fill="#2A428C"/>
<path d="M11.4443 0C9.72067 0 8.31848 1.40228 8.31848 3.12584V33.5371C8.31848 35.2607 9.72076 36.663 11.4443 36.663H15.7895C14.8251 35.6792 15.95 34.7181 15.95 34.7181C14.3627 34.3017 14.4975 32.6336 14.4975 32.6336C14.4975 32.6336 14.4975 7.14078 14.4975 5.54605C14.4975 3.95133 16.1174 3.54856 16.1174 3.54856C15.4793 2.91049 16.1174 2.23998 16.1174 2.23998V1.15961C15.5288 0.786582 15.6447 0.278695 15.7728 0L11.4443 0Z" fill="#142766"/>
<path d="M16.4295 2.23964H16.1174C15.819 2.23964 15.5771 1.99778 15.5771 1.69941C15.5771 1.40104 15.819 1.15918 16.1174 1.15918H16.4295C16.7279 1.15918 16.9697 1.40104 16.9697 1.69941C16.9697 1.99778 16.7279 2.23964 16.4295 2.23964Z" fill="#3C58A0"/>
<path d="M21.2724 2.23964H18.2733C17.9749 2.23964 17.733 1.99778 17.733 1.69941C17.733 1.40104 17.9749 1.15918 18.2733 1.15918H21.2724C21.5708 1.15918 21.8127 1.40104 21.8127 1.69941C21.8127 1.99778 21.5708 2.23964 21.2724 2.23964Z" fill="#3C58A0"/>
<path d="M26.0201 1.94434H23.8295C23.421 1.94434 23.0901 2.27541 23.0901 2.68375C23.0901 3.15911 22.7011 3.54814 22.2258 3.54814H15.2389C14.7635 3.54814 14.3745 3.1592 14.3745 2.68375C14.3745 2.27541 14.0434 1.94434 13.6351 1.94434H11.4443C10.7921 1.94434 10.2632 2.47316 10.2632 3.12542V33.5366C10.2632 34.1889 10.7921 34.7177 11.4443 34.7177H26.0201C26.6724 34.7177 27.2012 34.1889 27.2012 33.5366C27.2012 30.4084 27.2012 3.96034 27.2012 3.12542C27.2012 2.47316 26.6724 1.94434 26.0201 1.94434Z" fill="#73C3F9"/>
<path d="M15.9499 34.7187C15.7253 33.7495 16.8494 33.5231 16.8494 33.5231C16.8494 33.5231 17.5644 27.2602 16.8494 26.5452C16.1344 25.8303 16.8494 25.1551 16.8494 25.1551C16.8494 25.1551 17.6305 18.9584 16.8494 18.1772C16.0683 17.3961 16.8494 16.7871 16.8494 16.7871V9.80916C15.4504 8.92581 16.1863 7.65479 16.1863 7.65479V5.65352C15.1291 4.59633 16.1169 3.54947 16.1173 3.54911H15.2388C14.7634 3.54911 14.3744 3.16018 14.3744 2.68473C14.3744 2.27639 14.0433 1.94531 13.635 1.94531H11.4443C10.7921 1.94531 10.2632 2.47404 10.2632 3.1264V33.5377C10.2632 34.19 10.7921 34.7188 11.4443 34.7188H15.9499V34.7187Z" fill="#4FABF7"/>
<path d="M14.338 7.6545H23.1264C23.6791 7.6545 24.127 7.20654 24.127 6.65391C24.127 6.10128 23.6791 5.65332 23.1264 5.65332H14.338C13.7854 5.65332 13.3373 6.10128 13.3373 6.65391C13.3373 7.20663 13.7854 7.6545 14.338 7.6545Z" fill="#E9EFFF"/>
<path d="M14.338 5.65332H16.1863V7.65459H14.338C13.7854 7.65459 13.3374 7.20663 13.3374 6.654C13.3373 6.10119 13.7854 5.65332 14.338 5.65332Z" fill="#9BD8F9"/>
<path d="M24.9024 16.7865H12.562C12.067 16.7865 11.662 16.3815 11.662 15.8864V10.7086C11.662 10.2136 12.067 9.80859 12.562 9.80859H24.9024C25.3974 9.80859 25.8024 10.2136 25.8024 10.7086V15.8864C25.8024 16.3815 25.3974 16.7865 24.9024 16.7865Z" fill="#E9EFFF"/>
<path d="M24.9024 25.1547H12.562C12.067 25.1547 11.662 24.7496 11.662 24.2546V19.0768C11.662 18.5818 12.067 18.1768 12.562 18.1768H24.9024C25.3974 18.1768 25.8024 18.5818 25.8024 19.0768V24.2546C25.8024 24.7496 25.3974 25.1547 24.9024 25.1547Z" fill="#E9EFFF"/>
<path d="M24.9024 33.5228H12.562C12.067 33.5228 11.662 33.1178 11.662 32.6228V27.445C11.662 26.9499 12.067 26.5449 12.562 26.5449H24.9024C25.3974 26.5449 25.8024 26.9499 25.8024 27.445V32.6228C25.8024 33.1178 25.3974 33.5228 24.9024 33.5228Z" fill="#E9EFFF"/>
<path d="M24.9024 16.7865H12.562C12.067 16.7865 11.662 16.3815 11.662 15.8864V10.7086C11.662 10.2136 12.067 9.80859 12.562 9.80859H24.9024C25.3974 9.80859 25.8024 10.2136 25.8024 10.7086V15.8864C25.8024 16.3815 25.3974 16.7865 24.9024 16.7865Z" fill="#E9EFFF"/>
<path d="M24.9024 25.1547H12.562C12.067 25.1547 11.662 24.7496 11.662 24.2546V19.0768C11.662 18.5818 12.067 18.1768 12.562 18.1768H24.9024C25.3974 18.1768 25.8024 18.5818 25.8024 19.0768V24.2546C25.8024 24.7496 25.3974 25.1547 24.9024 25.1547Z" fill="#E9EFFF"/>
<path d="M24.9024 33.5228H12.562C12.067 33.5228 11.662 33.1178 11.662 32.6228V27.445C11.662 26.9499 12.067 26.5449 12.562 26.5449H24.9024C25.3974 26.5449 25.8024 26.9499 25.8024 27.445V32.6228C25.8024 33.1178 25.3974 33.5228 24.9024 33.5228Z" fill="#E9EFFF"/>
<path d="M15.9493 15.8863V10.7086C15.9493 10.2136 16.3543 9.80859 16.8494 9.80859H12.562C12.067 9.80859 11.662 10.2136 11.662 10.7086V15.8863C11.662 16.3814 12.067 16.7864 12.562 16.7864H16.8494C16.3543 16.7864 15.9493 16.3814 15.9493 15.8863Z" fill="#D3DCFB"/>
<path d="M15.9493 24.2546V19.0768C15.9493 18.5818 16.3543 18.1768 16.8494 18.1768H12.562C12.067 18.1768 11.662 18.5818 11.662 19.0768V24.2546C11.662 24.7496 12.067 25.1547 12.562 25.1547H16.8494C16.3543 25.1547 15.9493 24.7496 15.9493 24.2546Z" fill="#D3DCFB"/>
<path d="M15.9493 32.6228V27.445C15.9493 26.9499 16.3543 26.5449 16.8494 26.5449H12.562C12.067 26.5449 11.662 26.9499 11.662 27.445V32.6228C11.662 33.1178 12.067 33.5228 12.562 33.5228H16.8494C16.3543 33.5228 15.9493 33.1178 15.9493 32.6228Z" fill="#D3DCFB"/>
<path d="M18.2457 12.7031H14.6367C14.2646 12.7031 13.9629 12.4015 13.9629 12.0293C13.9629 11.6571 14.2646 11.3555 14.6367 11.3555H18.2457C18.6178 11.3555 18.9195 11.6571 18.9195 12.0293C18.9195 12.4014 18.6178 12.7031 18.2457 12.7031Z" fill="#3C58A0"/>
<path d="M22.8277 15.2402H14.6367C14.2646 15.2402 13.9629 14.9386 13.9629 14.5664C13.9629 14.1942 14.2646 13.8926 14.6367 13.8926H22.8277C23.1998 13.8926 23.5015 14.1942 23.5015 14.5664C23.5015 14.9386 23.1998 15.2402 22.8277 15.2402Z" fill="#BEC8F7"/>
<path d="M21.0608 12.7031H20.5516C20.1795 12.7031 19.8778 12.4015 19.8778 12.0293C19.8778 11.6571 20.1795 11.3555 20.5516 11.3555H21.0608C21.4329 11.3555 21.7346 11.6571 21.7346 12.0293C21.7346 12.4014 21.433 12.7031 21.0608 12.7031Z" fill="#BEC8F7"/>
<path d="M18.2457 21.0703H14.6367C14.2646 21.0703 13.9629 20.7687 13.9629 20.3965C13.9629 20.0243 14.2646 19.7227 14.6367 19.7227H18.2457C18.6178 19.7227 18.9195 20.0243 18.9195 20.3965C18.9195 20.7687 18.6178 21.0703 18.2457 21.0703Z" fill="#3C58A0"/>
<path d="M22.8277 23.6084H14.6367C14.2646 23.6084 13.9629 23.3068 13.9629 22.9346C13.9629 22.5623 14.2646 22.2607 14.6367 22.2607H22.8277C23.1998 22.2607 23.5015 22.5623 23.5015 22.9346C23.5015 23.3067 23.1998 23.6084 22.8277 23.6084Z" fill="#BEC8F7"/>
<path d="M21.0608 21.0703H20.5516C20.1795 21.0703 19.8778 20.7687 19.8778 20.3965C19.8778 20.0243 20.1795 19.7227 20.5516 19.7227H21.0608C21.4329 19.7227 21.7346 20.0243 21.7346 20.3965C21.7346 20.7687 21.433 21.0703 21.0608 21.0703Z" fill="#BEC8F7"/>
<path d="M18.2457 29.4385H14.6367C14.2646 29.4385 13.9629 29.1368 13.9629 28.7646C13.9629 28.3924 14.2646 28.0908 14.6367 28.0908H18.2457C18.6178 28.0908 18.9195 28.3924 18.9195 28.7646C18.9195 29.1369 18.6178 29.4385 18.2457 29.4385Z" fill="#3C58A0"/>
<path d="M22.8277 31.9766H14.6367C14.2646 31.9766 13.9629 31.675 13.9629 31.3027C13.9629 30.9305 14.2646 30.6289 14.6367 30.6289H22.8277C23.1998 30.6289 23.5015 30.9305 23.5015 31.3027C23.5015 31.675 23.1998 31.9766 22.8277 31.9766Z" fill="#BEC8F7"/>
<path d="M21.0608 29.4385H20.5516C20.1795 29.4385 19.8778 29.1368 19.8778 28.7646C19.8778 28.3924 20.1795 28.0908 20.5516 28.0908H21.0608C21.4329 28.0908 21.7346 28.3924 21.7346 28.7646C21.7346 29.1369 21.433 29.4385 21.0608 29.4385Z" fill="#BEC8F7"/>
<path d="M11.4703 20.2902C10.7757 21.0398 9.60502 21.0844 8.85546 20.3899L5.75612 17.5181C5.00655 16.8236 4.9619 15.6528 5.65648 14.9033C6.35106 14.1537 7.52173 14.1091 8.27129 14.8036L11.3706 17.6754C12.1202 18.37 12.1649 19.5406 11.4703 20.2902Z" fill="#F9BA8F"/>
<path d="M10.1305 19.0848L7.03118 16.213C6.51278 15.7327 6.3321 15.0247 6.4993 14.3857C6.18683 14.4759 5.89367 14.6476 5.65648 14.9036C4.9619 15.6532 5.00655 16.8239 5.75612 17.5184L8.85546 20.3902C9.60502 21.0847 10.7757 21.0401 11.4703 20.2905C11.6845 20.0594 11.8278 19.788 11.9024 19.503C11.2998 19.6768 10.6241 19.5421 10.1305 19.0848Z" fill="#FCAD6D"/>
<path d="M11.4703 30.384C10.7757 31.1335 9.60502 31.1782 8.85546 30.4836L5.75612 27.6118C5.00655 26.9173 4.9619 25.7466 5.65648 24.997C6.35106 24.2475 7.52173 24.2028 8.27129 24.8974L11.3706 27.7692C12.1202 28.4636 12.1649 29.6344 11.4703 30.384Z" fill="#F9BA8F"/>
<path d="M10.1305 29.1785L7.03118 26.3067C6.51278 25.8264 6.3321 25.1185 6.4993 24.4795C6.18683 24.5697 5.89367 24.7414 5.65648 24.9974C4.9619 25.7469 5.00655 26.9177 5.75612 27.6122L8.85546 30.4839C9.60502 31.1784 10.7757 31.1339 11.4703 30.3843C11.6845 30.1531 11.8278 29.8817 11.9024 29.5967C11.2998 29.7707 10.6241 29.6359 10.1305 29.1785Z" fill="#FCAD6D"/>
<path d="M11.4703 25.3371C10.7757 26.0867 9.60502 26.1313 8.85546 25.4367L5.75612 22.565C5.00655 21.8705 4.9619 20.6997 5.65648 19.9501C6.35106 19.2006 7.52173 19.1559 8.27129 19.8505L11.3706 22.7223C12.1202 23.4168 12.1649 24.5874 11.4703 25.3371Z" fill="#F9BA8F"/>
<path d="M10.1305 24.1316L7.03118 21.2599C6.51278 20.7796 6.3321 20.0716 6.4993 19.4326C6.18683 19.5228 5.89358 19.6945 5.65648 19.9505C4.9619 20.7 5.00655 21.8707 5.75612 22.5653L8.85546 25.4371C9.60502 26.1316 10.7757 26.087 11.4703 25.3374C11.6845 25.1062 11.8278 24.8348 11.9024 24.5498C11.2998 24.7238 10.6241 24.589 10.1305 24.1316Z" fill="#FCAD6D"/>
<path d="M37.9202 7.80664C36.7254 9.32644 35.6471 11.51 36.5091 13.8928C38.1263 18.3628 40.7019 22.1576 39.5039 28.7654C38.9603 31.7637 40.744 33.0205 42.8547 33.499C44.2364 30.6202 45.0117 27.3952 45.0117 23.9886C45.0118 17.5892 42.28 11.8287 37.9202 7.80664Z" fill="#9181F2"/>
</g>
<defs>
<clipPath id="clip0_19_232">
<rect width="46" height="46" fill="white"/>
</clipPath>
</defs>
</svg>
