<svg width="31" height="30" viewBox="0 0 31 30" fill="none" xmlns="http://www.w3.org/2000/svg">
<path d="M17.1483 1.03832L20.4891 7.80766C20.7603 8.3571 21.2845 8.73797 21.891 8.82611L29.3613 9.91157C30.8884 10.1335 31.4981 12.01 30.3932 13.0873L24.9876 18.3565C24.5487 18.7842 24.3485 19.4005 24.4521 20.0044L25.7282 27.4446C25.989 28.9654 24.3927 30.1253 23.0268 29.4072L16.3451 25.8944C15.8027 25.6092 15.1548 25.6092 14.6124 25.8944L7.93063 29.4072C6.5648 30.1252 4.96845 28.9654 5.22928 27.4446L6.50537 20.0044C6.60893 19.4005 6.40873 18.7842 5.96989 18.3565L0.564259 13.0873C-0.540743 12.0102 0.0690547 10.1336 1.59614 9.91157L9.06647 8.82611C9.67282 8.73797 10.1971 8.3571 10.4683 7.80766L13.8091 1.03832C14.4922 -0.345456 16.4653 -0.345456 17.1483 1.03832Z" fill="#FED402"/>
</svg>
