<svg width="7" height="7" viewBox="0 0 7 7" fill="none" xmlns="http://www.w3.org/2000/svg">
<path d="M2.78671 1.0043C3.01122 0.313322 3.98878 0.313321 4.21329 1.0043L4.27255 1.18668L4.51031 1.10942L4.27255 1.18668C4.43989 1.70171 4.91984 2.05041 5.46137 2.05041H5.65313C6.37967 2.05041 6.68175 2.98012 6.09397 3.40717L5.93883 3.51988C5.50072 3.83819 5.3174 4.4024 5.48474 4.91742L5.544 5.0998C5.76851 5.79078 4.97765 6.36537 4.38987 5.93832L4.23473 5.82561C3.79662 5.5073 3.20338 5.50731 2.76527 5.82561L2.61013 5.93832C2.02235 6.36537 1.23149 5.79078 1.456 5.0998L1.51526 4.91742C1.6826 4.4024 1.49928 3.83819 1.06117 3.51988L0.906032 3.40717C0.318248 2.98012 0.620329 2.05041 1.34687 2.05041H1.53863C2.08016 2.05041 2.56011 1.70171 2.72745 1.18668L2.78671 1.0043Z" stroke="#F3FBFF" stroke-width="0.5"/>
</svg>
