<svg width="36" height="36" viewBox="0 0 36 36" fill="none" xmlns="http://www.w3.org/2000/svg">
<g clip-path="url(#clip0_19_219)">
<path d="M33.4286 8.7267C34.904 11.523 36 14.608 36 18C36 27.9411 27.9411 36 18 36C8.05887 36 0 27.9411 0 18C0 8.05887 8.05887 0 18 0C21.4536 0 24.8201 1.05687 27.5604 2.74317C27.5604 2.74317 31.8094 5.65777 33.4286 8.7267Z" fill="#FF405C"/>
<path d="M36 18C36 14.608 34.904 11.523 33.4287 8.7267C31.8094 5.65777 27.5604 2.74317 27.5604 2.74317C24.8201 1.05687 21.4536 0 18 0V36C27.9411 36 36 27.9411 36 18Z" fill="#C1126B"/>
<path d="M28.4523 12.8122C29.2202 14.4499 29.6657 16.0659 29.6657 17.9997C29.6657 24.4424 24.4428 29.6654 18 29.6654C11.5572 29.6654 6.33435 24.4424 6.33435 17.9997C6.33435 11.5569 11.5573 6.33398 18 6.33398C20.0351 6.33398 21.7876 6.76774 23.4531 7.68377C23.4531 7.68384 26.9969 9.70828 28.4523 12.8122Z" fill="#FFF4F4"/>
<path d="M29.6657 17.9997C29.6657 16.0658 29.2203 14.4499 28.4523 12.8122C26.9969 9.70835 23.4532 7.68384 23.4532 7.68384C21.7876 6.76781 20.0351 6.33398 18 6.33398V29.6653C24.4427 29.6654 29.6657 24.4424 29.6657 17.9997Z" fill="#EEE1DC"/>
<path d="M18.0001 23.4913C21.0328 23.4913 23.4913 21.0328 23.4913 18.0001C23.4913 14.9673 21.0328 12.5088 18.0001 12.5088C14.9673 12.5088 12.5088 14.9673 12.5088 18.0001C12.5088 21.0328 14.9673 23.4913 18.0001 23.4913Z" fill="#FF405C"/>
<path d="M23.4913 18.0001C23.4913 14.9673 21.0327 12.5088 18 12.5088V23.4913C21.0327 23.4913 23.4913 21.0328 23.4913 18.0001Z" fill="#C1126B"/>
<path d="M17.7781 19.4609C17.4928 19.4609 17.2078 19.3517 16.9908 19.1334C16.559 18.6986 16.5613 17.996 16.996 17.5641L30.69 3.96006C31.1249 3.5282 31.8274 3.53059 32.2593 3.96519C32.6911 4.39993 32.6888 5.10257 32.2541 5.53443L18.5601 19.1385C18.3436 19.3535 18.0608 19.4609 17.7781 19.4609Z" fill="#00337A"/>
<path d="M32.2293 3.41635L31.2183 0.497118C31.0511 0.0142819 30.4363 -0.127046 30.075 0.234219L24.337 5.97228C24.1705 6.13878 24.1001 6.37848 24.1501 6.60854L24.9926 10.4863C25.0475 10.7394 25.2393 10.9406 25.4895 11.0077L29.4737 12.0769C29.7126 12.141 29.9675 12.0727 30.1425 11.8979L35.7972 6.24313C36.1423 5.89803 36.0314 5.31381 35.5839 5.11918L32.6072 3.82452C32.4297 3.74731 32.2925 3.59931 32.2293 3.41635Z" fill="#00AEEE"/>
<path d="M32.2593 3.96531C32.2509 3.9568 32.2416 3.94956 32.233 3.94141L17.0171 19.1574C17.2306 19.359 17.5039 19.4611 17.778 19.4611C18.0607 19.4611 18.3436 19.3536 18.56 19.1387L32.2541 5.53462C32.6889 5.10269 32.6912 4.40013 32.2593 3.96531Z" fill="#002659"/>
<path d="M35.5817 5.12084L32.605 3.82618C32.5471 3.80101 32.494 3.76754 32.4459 3.72852L25.2689 10.9054C25.3344 10.9516 25.4074 10.9879 25.4874 11.0094L29.4716 12.0785C29.7105 12.1427 29.9654 12.0744 30.1404 11.8995L35.7951 6.24479C36.1401 5.8997 36.0293 5.31547 35.5817 5.12084Z" fill="#0089FF"/>
</g>
<defs>
<clipPath id="clip0_19_219">
<rect width="36" height="36" fill="white"/>
</clipPath>
</defs>
</svg>
