<svg width="52" height="52" viewBox="0 0 52 52" fill="none" xmlns="http://www.w3.org/2000/svg">
<g clip-path="url(#clip0_16_127)">
<mask id="mask0_16_127" style="mask-type:luminance" maskUnits="userSpaceOnUse" x="0" y="-1" width="52" height="53">
<path d="M0 -0.000244141H52V51.9998H0V-0.000244141Z" fill="white"/>
</mask>
<g mask="url(#mask0_16_127)">
<path d="M13.3406 51.238H38.6589" stroke="#C7DBE6" stroke-width="2.16667" stroke-miterlimit="10" stroke-linecap="round" stroke-linejoin="round"/>
<path d="M29.047 51.238L27.7043 24.7262" stroke="#C7DBE6" stroke-width="2.16667" stroke-miterlimit="10" stroke-linecap="round" stroke-linejoin="round"/>
<path d="M23.3911 42.5921L22.9531 51.238" stroke="#C7DBE6" stroke-width="2.16667" stroke-miterlimit="10" stroke-linecap="round" stroke-linejoin="round"/>
</g>
<path d="M24.2958 24.7262L23.5723 39.0132" stroke="#C7DBE6" stroke-width="2.16667" stroke-miterlimit="10" stroke-linecap="round" stroke-linejoin="round"/>
<mask id="mask1_16_127" style="mask-type:luminance" maskUnits="userSpaceOnUse" x="0" y="-1" width="52" height="53">
<path d="M0 -0.000244141H52V51.9998H0V-0.000244141Z" fill="white"/>
</mask>
<g mask="url(#mask1_16_127)">
<path d="M24.5936 13.2081C23.9934 12.9267 23.658 12.2761 23.7774 11.6239L25.5613 1.87133C25.679 1.22864 26.239 0.76166 26.8925 0.76166C27.6399 0.76166 28.2457 1.36758 28.2457 2.11488V10.8867C28.2457 12.7643 26.2938 14.0051 24.5936 13.2081Z" stroke="#C7DBE6" stroke-width="2.16667" stroke-miterlimit="10" stroke-linecap="round" stroke-linejoin="round"/>
<path d="M26 17.6494V13.4539" stroke="#C7DBE6" stroke-width="2.16667" stroke-miterlimit="10" stroke-linecap="round" stroke-linejoin="round"/>
<path d="M19.6143 26.7029C19.6707 27.3635 19.2748 27.9792 18.6504 28.202L9.31247 31.5332C8.69711 31.7528 8.01268 31.5012 7.68595 30.9353C7.3122 30.288 7.53401 29.4604 8.18127 29.0868L15.7778 24.7009C17.4039 23.762 19.4544 24.8321 19.6143 26.7029Z" stroke="#C7DBE6" stroke-width="2.16667" stroke-miterlimit="10" stroke-linecap="round" stroke-linejoin="round"/>
<path d="M22.7571 23.2648L19.1241 25.363" stroke="#C7DBE6" stroke-width="2.16667" stroke-miterlimit="10" stroke-linecap="round" stroke-linejoin="round"/>
<path d="M33.791 24.268C34.3349 23.8888 35.066 23.9238 35.5712 24.3532L43.1251 30.7744C43.623 31.1976 43.7473 31.9162 43.4205 32.4821C43.0469 33.1293 42.2193 33.3511 41.572 32.9774L33.9754 28.5915C32.3493 27.6527 32.2508 25.3419 33.791 24.268Z" stroke="#C7DBE6" stroke-width="2.16667" stroke-miterlimit="10" stroke-linecap="round" stroke-linejoin="round"/>
<path d="M32.8758 25.363L29.2419 23.2648" stroke="#C7DBE6" stroke-width="2.16667" stroke-miterlimit="10" stroke-linecap="round" stroke-linejoin="round"/>
<path d="M29.2243 23.294C28.1744 25.075 25.8794 25.6677 24.0984 24.6177C22.3175 23.5677 21.7249 21.2728 22.7749 19.4918C23.8247 17.7109 26.1197 17.1183 27.9006 18.1683C29.6815 19.2181 30.2742 21.513 29.2243 23.294Z" stroke="#C7DBE6" stroke-width="2.16667" stroke-miterlimit="10" stroke-linecap="round" stroke-linejoin="round"/>
<path d="M26.7615 21.3931C26.7615 21.8137 26.4204 22.1548 25.9998 22.1548C25.579 22.1548 25.238 21.8137 25.238 21.3931C25.238 20.9724 25.579 20.6313 25.9998 20.6313C26.4204 20.6313 26.7615 20.9724 26.7615 21.3931Z" fill="#C7DBE6"/>
<path d="M31.791 40.5496C34.4754 39.7523 36.927 38.4147 39.0213 36.6638" stroke="#C7DBE6" stroke-width="2.16667" stroke-miterlimit="10" stroke-linecap="round" stroke-linejoin="round"/>
<path d="M12.9788 36.6638C15.072 38.4147 17.5247 39.7523 20.209 40.5496" stroke="#C7DBE6" stroke-width="2.16667" stroke-miterlimit="10" stroke-linecap="round" stroke-linejoin="round"/>
<path d="M6.28875 25.9998C5.8957 24.4225 5.6875 22.7731 5.6875 21.074C5.6875 12.5935 10.8845 5.32671 18.268 2.28491" stroke="#C7DBE6" stroke-width="2.16667" stroke-miterlimit="10" stroke-linecap="round" stroke-linejoin="round"/>
<path d="M33.7319 2.28491C41.1155 5.32671 46.3125 12.5935 46.3125 21.074C46.3125 22.7731 46.1043 24.4225 45.7112 25.9998" stroke="#C7DBE6" stroke-width="2.16667" stroke-miterlimit="10" stroke-linecap="round" stroke-linejoin="round"/>
<path d="M31.469 11.2102C35.105 13.1622 37.578 17.0013 37.578 21.4172" stroke="#C7DBE6" stroke-width="2.16667" stroke-miterlimit="10" stroke-linecap="round" stroke-linejoin="round"/>
<path d="M14.4219 21.4172C14.4219 17.0013 16.8949 13.1622 20.5309 11.2102" stroke="#C7DBE6" stroke-width="2.16667" stroke-miterlimit="10" stroke-linecap="round" stroke-linejoin="round"/>
</g>
</g>
<defs>
<clipPath id="clip0_16_127">
<rect width="52" height="52" fill="white" transform="translate(0 -0.000244141)"/>
</clipPath>
</defs>
</svg>
