<svg width="52" height="31" viewBox="0 0 52 31" fill="none" xmlns="http://www.w3.org/2000/svg">
<path d="M48.6008 14.5604C48.5988 14.5594 48.597 14.5584 48.595 14.5574C48.2695 14.389 48.0704 14.0476 48.0704 13.6811V8.70136C48.0704 4.86789 44.949 1.76366 41.1088 1.79169C37.2986 1.81951 34.2507 4.97763 34.2507 8.78792V13.681C34.2507 14.0474 34.0516 14.3889 33.7261 14.5573C33.7241 14.5583 33.7221 14.5594 33.7201 14.5604C32.6759 15.0987 32.3479 18.1262 34.2294 19.1969L34.5926 19.4117H47.6908L48.0082 19.1666C49.856 18.0728 49.635 15.0937 48.6008 14.5604Z" fill="#B06C6C"/>
<path d="M36.9492 14.5603C36.9512 14.5592 36.9532 14.5582 36.9552 14.5572C37.2807 14.3888 37.4798 14.0474 37.4798 13.6809V8.78781C37.4798 5.51346 39.7315 2.7227 42.7827 1.98428C42.2462 1.85527 41.686 1.78747 41.1089 1.79169C37.2988 1.81951 34.2508 4.97763 34.2508 8.78792V13.681C34.2508 14.0474 34.0517 14.3889 33.7262 14.5573C33.7242 14.5583 33.7223 14.5594 33.7202 14.5604C32.6761 15.0987 32.3481 18.1262 34.2296 19.1969L34.5927 19.4117H37.8217L37.4586 19.1969C35.5771 18.1262 35.9051 15.0987 36.9492 14.5603Z" fill="#865151"/>
<path d="M49.7052 19.8236C49.5273 19.7547 47.3763 18.9217 45.7133 18.2776L45.1942 18.7057H43.1613L41.1573 24.459L39.1914 18.7057H36.9865L36.6048 18.2759C34.9214 18.9286 32.6545 19.8073 32.6127 19.8236C31.6316 20.2273 30.3179 21.4978 30.3179 23.383V26.6299C30.3179 27.2342 30.8077 27.7241 31.412 27.7241H50.9059C51.5102 27.7241 52 27.2342 52 26.6299V23.3831C51.9999 21.7594 50.9604 20.3403 49.7052 19.8236Z" fill="#DBEDFF"/>
<path d="M33.1413 26.7343V20.8293C33.1413 20.3572 33.2237 19.9238 33.3626 19.5327C32.9186 19.7048 32.6272 19.8178 32.6124 19.8235C31.6313 20.2272 30.3176 21.4977 30.3176 23.3829V26.6298C30.3176 27.2341 30.8075 27.724 31.4118 27.724H33.7709C33.3992 27.549 33.1413 27.1722 33.1413 26.7343Z" fill="#B5DCFF"/>
<path d="M41.9442 24.4586C41.9442 24.0254 41.593 23.6743 41.1599 23.6743C40.7267 23.6743 40.3756 24.0255 40.3756 24.4586V27.7242H41.9443V24.4586H41.9442Z" fill="#B5DCFF"/>
<path d="M43.5447 17.3099C43.5196 17.2556 43.5052 17.1957 43.5051 17.1332L43.5039 15.3979C42.8451 15.8477 42.0523 16.1111 41.2017 16.1082C41.154 16.1081 41.1069 16.1068 41.0598 16.1052V24.1743L41.1572 24.4593L43.5559 17.573L43.5447 17.3099Z" fill="#F1AFA2"/>
<path d="M41.1643 16.1074C40.2548 16.0974 39.4578 15.836 38.81 15.4062V17.1306C38.81 17.2015 38.7957 17.26 38.7728 17.3097V17.4816L41.1572 24.4593L41.1644 24.4387V16.1074H41.1643Z" fill="#E99C8C"/>
<path d="M45.1274 9.31066H44.1989C44.0681 9.31066 44.0583 9.30736 43.3336 9.24584C42.3312 9.16083 41.4668 8.40005 41.2271 7.41329C41.2194 7.38155 41.1915 7.35889 41.1589 7.35889C41.1262 7.35889 41.0984 7.38155 41.0907 7.41329C40.8771 8.29391 40.171 8.98359 39.3239 9.19154V12.1094C39.3239 13.9465 40.4798 15.655 42.3389 16.2593C44.0629 15.7562 45.3313 14.1358 45.3313 12.2533V9.51448C45.3313 9.40185 45.24 9.31066 45.1274 9.31066Z" fill="#F1AFA2"/>
<path d="M39.3832 12.1231V9.17529C39.2458 9.21301 39.1048 9.23949 38.961 9.25052C39.0198 9.24598 38.2194 9.31121 38.0771 9.31121H37.19C37.0775 9.31121 36.9862 9.40251 36.9862 9.51503V12.309C36.9862 14.4451 38.6497 16.3985 41.1725 16.4218C41.6161 16.4259 42.0437 16.3569 42.4455 16.2275C40.5604 15.6659 39.3832 13.9596 39.3832 12.1231Z" fill="#E99C8C"/>
<path d="M43.5816 21.8984C43.8216 21.6446 44.1785 21.5377 44.5185 21.6179L45.8147 21.9237C46.0431 21.9776 46.251 21.7775 46.2057 21.5472L45.7134 18.2782C44.7083 17.8889 43.8814 17.5687 43.7763 17.528C43.6717 17.4876 43.5902 17.4082 43.5449 17.3101L41.1606 24.4595L43.5816 21.8984Z" fill="#60B9FE"/>
<path d="M36.503 21.9234L37.7992 21.6177C38.1391 21.5374 38.4962 21.6444 38.736 21.8982L41.157 24.4592L38.7727 17.3096C38.6909 17.4873 38.4934 17.5438 38.3968 17.5813C38.3624 17.5947 37.5816 17.8973 36.6045 18.2761L36.1118 21.5469C36.0667 21.7772 36.2745 21.9773 36.503 21.9234Z" fill="#60B9FE"/>
<path d="M44.2626 21.5918L44.5195 17.8154C44.1129 17.658 43.8341 17.55 43.7761 17.5275C43.6715 17.4871 43.59 17.4076 43.5447 17.3096L41.1604 24.459L43.5813 21.8979C43.7615 21.7075 44.0074 21.5998 44.2626 21.5918Z" fill="#1CA8FF"/>
<path d="M37.9283 17.7627C37.6018 17.8893 37.1325 18.0712 36.6045 18.276L36.1118 21.5467C36.0666 21.777 36.2744 21.9771 36.5029 21.9232L37.7991 21.6175C37.9293 21.5868 38.0621 21.584 38.1897 21.606L37.9283 17.7627Z" fill="#1CA8FF"/>
<path d="M13.3768 15.6958H8.70084L8.4458 15.9075V18.5772L8.5744 18.9824L9.91285 20.5447H12.46L13.8413 19.1269V18.7248V15.9095L13.3768 15.6958Z" fill="#FFB1A0"/>
<path d="M11.0068 15.6958H8.70084L8.4458 15.9075V18.5772L8.5744 18.9824L9.91285 20.5447H11.0068V15.6958Z" fill="#F79480"/>
<path d="M14.4976 6.8291L11.8972 8.77943H9.54065V12.0334C9.54065 14.0257 10.6935 15.7522 12.3663 16.5858C14.3644 16.071 15.845 14.2539 15.845 12.0975V9.06219L14.4976 6.8291Z" fill="#FFCEBE"/>
<path d="M11.2107 16.7316C11.6422 16.7316 12.0595 16.6707 12.4561 16.5596C10.766 15.7586 9.59368 14.0375 9.59368 12.0464V8.7793H6.84084L6.44226 9.09873V12.0972C6.44226 14.5194 8.34004 16.7316 11.2107 16.7316Z" fill="#FFB1A0"/>
<path d="M15.5438 2.99808C15.1011 3.03219 14.6947 2.75376 14.6095 2.31788C14.466 1.58389 14.1025 0.855469 12.683 0.855469C12.6037 0.855469 7.83773 0.855469 7.75777 0.855469C5.95016 0.855469 4.48486 2.32087 4.48486 4.12838V7.72042C4.48486 8.4815 5.1019 9.09854 5.86298 9.09854H11.453C12.7033 9.09854 13.7892 8.39711 14.3402 7.36656C14.3828 7.2867 14.5041 7.31782 14.5041 7.4085C14.5041 8.33807 15.2647 9.09864 16.1943 9.09864C16.6814 9.09864 17.0801 8.69996 17.0801 8.21276V4.4643C17.08 3.581 16.3096 2.93914 15.5438 2.99808Z" fill="#7B6C79"/>
<path d="M7.91594 7.72041V4.12838C7.91594 2.32077 9.38124 0.855469 11.1889 0.855469C9.75797 0.855469 7.80868 0.855469 7.75777 0.855469C5.95016 0.855469 4.48486 2.32087 4.48486 4.12838V7.72041C4.48486 8.4815 5.1019 9.09853 5.86298 9.09853H9.29417C8.53298 9.09853 7.91594 8.48161 7.91594 7.72041Z" fill="#665E68"/>
<path d="M19.539 20.0788C18.8887 19.8269 18.2185 19.5674 17.5943 19.3256L16.3396 19.5786L11.2325 21.9834L5.58565 19.3135H4.85619L2.914 20.072C1.15668 20.7583 0 22.4519 0 24.3385V26.5927C0 27.2178 0.506774 27.7246 1.13195 27.7246H9.19654L9.5404 27.4972H12.9716L13.2684 27.7246H21.3329C21.9581 27.7246 22.4649 27.2178 22.4649 26.5927V24.3498C22.465 22.4586 21.3028 20.7619 19.539 20.0788Z" fill="#DBEDFF"/>
<path d="M12.5134 20.2552L12.3658 20.1538C11.5786 20.1538 10.8862 20.1538 10.0991 20.1538L9.96713 20.2552L9.08826 21.7722V21.9022L9.96352 23.8119L10.1037 23.9122H12.4186L12.5015 23.8119L13.3768 21.9022V21.7451L12.5134 20.2552Z" fill="#FFE02F"/>
<path d="M15.1711 18.3883C14.7846 18.2354 14.3461 18.3057 14.0261 18.571L12.5695 19.7789C12.3417 19.9679 12.2943 20.2989 12.4599 20.5441L13.4195 21.9654C13.61 22.2475 14.0022 22.3036 14.2641 22.0864L17.5942 19.3249C16.2759 18.8143 15.565 18.5442 15.1711 18.3883Z" fill="#B5DCFF"/>
<path d="M9.8955 19.7793L8.41784 18.554C8.0982 18.289 7.66046 18.2185 7.27415 18.3707C6.86867 18.5305 6.14993 18.8079 4.8562 19.3131L8.20083 22.0868C8.46277 22.304 8.85496 22.2478 9.04538 21.9658L10.005 20.5445C10.1707 20.2993 10.1233 19.9683 9.8955 19.7793Z" fill="#B5DCFF"/>
<path d="M12.5015 23.812C11.7005 23.812 10.7645 23.812 9.9635 23.812L9.19653 27.7244H13.2685L12.5015 23.812Z" fill="#FFE02F"/>
<path d="M12.5015 23.812C11.7005 23.812 10.7645 23.812 9.9635 23.812L9.19653 27.7244H11.8053L12.5368 23.9926L12.5015 23.812Z" fill="#FBC700"/>
<path d="M3.01429 22.5883C3.01429 21.2495 4.09924 19.9456 4.60365 19.4116L2.91413 20.0714C1.1568 20.7577 0.00012207 22.4513 0.00012207 24.3379V26.5921C0.00012207 27.2173 0.506896 27.724 1.13207 27.724H3.01429C3.01429 25.9609 3.01429 23.6128 3.01429 22.5883Z" fill="#B5DCFF"/>
<path d="M28.1442 18.5864H23.4683L23.2133 18.7981V21.4679L23.3419 21.873L24.6803 23.4353H27.2274L28.6088 22.0175V21.6154V18.8001L28.1442 18.5864Z" fill="#FFCEBE"/>
<path d="M25.7742 18.5864H23.4683L23.2133 18.7981V21.4679L23.3419 21.873L24.6803 23.4353H25.7742V18.5864Z" fill="#FFB1A0"/>
<path d="M29.2651 9.71924L26.6646 11.6696H24.308V14.9235C24.308 16.9159 25.4608 18.6423 27.1337 19.4759C29.1317 18.9611 30.6124 17.144 30.6124 14.9876V11.9523L29.2651 9.71924Z" fill="#FFDECF"/>
<path d="M25.978 19.6221C26.4095 19.6221 26.8269 19.5612 27.2234 19.4501C25.5334 18.6491 24.3611 16.928 24.3611 14.937V11.6699H21.6082L21.2096 11.9894V14.9879C21.2096 17.4099 23.1074 19.6221 25.978 19.6221Z" fill="#FFCEBE"/>
<path d="M30.3113 5.88871C29.8685 5.92281 29.4622 5.64438 29.377 5.20851C29.2334 4.47452 28.87 3.74609 27.4505 3.74609C27.3711 3.74609 22.6052 3.74609 22.5252 3.74609C20.7176 3.74609 19.2523 5.21149 19.2523 7.019V10.611C19.2523 11.3721 19.8694 11.9892 20.6304 11.9892H26.2204C27.4708 11.9892 28.5566 11.2877 29.1076 10.2572C29.1503 10.1773 29.2716 10.2084 29.2716 10.2991C29.2716 11.2287 30.0321 11.9893 30.9617 11.9893C31.4489 11.9893 31.8476 11.5906 31.8476 11.1034V7.35493C31.8474 6.47173 31.077 5.82987 30.3113 5.88871Z" fill="#FBC56C"/>
<path d="M22.6834 10.611V7.019C22.6834 5.21139 24.1487 3.74609 25.9563 3.74609C24.5254 3.74609 22.5761 3.74609 22.5252 3.74609C20.7176 3.74609 19.2523 5.21149 19.2523 7.019V10.611C19.2523 11.3721 19.8694 11.9892 20.6304 11.9892H24.0616C23.3004 11.9892 22.6834 11.3722 22.6834 10.611Z" fill="#DAAC5D"/>
<path d="M34.3064 22.9688C33.6561 22.717 32.9859 22.4574 32.3616 22.2157L31.107 22.4686L26 24.8735L20.3531 22.2036H19.6236L17.6815 22.9621C15.9241 23.6484 14.7675 25.342 14.7675 27.2286V29.4828C14.7675 30.108 15.2742 30.6147 15.8994 30.6147H23.964L24.3079 30.3873H27.739L28.0358 30.6147H36.1004C36.7256 30.6147 37.2324 30.108 37.2324 29.4828V27.2399C37.2324 25.3486 36.0701 23.6519 34.3064 22.9688Z" fill="#DBEDFF"/>
<path d="M27.2808 23.1463L27.1333 23.0449C26.3461 23.0449 25.6536 23.0449 24.8666 23.0449L24.7346 23.1463L23.8557 24.6633V24.7933L24.731 26.703L24.8711 26.8033H27.186L27.269 26.703L28.1442 24.7933V24.6362L27.2808 23.1463Z" fill="#FF3581"/>
<path d="M29.9386 21.2795C29.552 21.1265 29.1136 21.1968 28.7935 21.4622L27.337 22.67C27.1092 22.859 27.0618 23.19 27.2273 23.4353L28.187 24.8564C28.3774 25.1385 28.7696 25.1946 29.0316 24.9774L32.3617 22.2159C31.0434 21.7055 30.3325 21.4354 29.9386 21.2795Z" fill="#B5DCFF"/>
<path d="M24.6628 22.6699L23.1852 21.4446C22.8655 21.1796 22.4278 21.1091 22.0415 21.2613C21.636 21.4211 20.9173 21.6985 19.6235 22.2038L22.9682 24.9774C23.2301 25.1946 23.6223 25.1385 23.8127 24.8564L24.7724 23.4352C24.9382 23.1899 24.8908 22.8589 24.6628 22.6699Z" fill="#B5DCFF"/>
<path d="M27.2689 26.7026C26.468 26.7026 25.5319 26.7026 24.731 26.7026L23.964 30.615H28.0359L27.2689 26.7026Z" fill="#FF3581"/>
<path d="M27.2689 26.7026C26.468 26.7026 25.5319 26.7026 24.731 26.7026L23.964 30.6149H26.5728L27.3043 26.8832L27.2689 26.7026Z" fill="#E50255"/>
<path d="M17.7816 25.4794C17.7816 24.1406 18.8666 22.8367 19.371 22.3027L17.6815 22.9625C15.9241 23.6488 14.7675 25.3425 14.7675 27.229V29.4832C14.7675 30.1084 15.2742 30.6151 15.8994 30.6151H17.7816C17.7816 28.8521 17.7816 26.5039 17.7816 25.4794Z" fill="#B5DCFF"/>
</svg>
